<svg xmlns="http://www.w3.org/2000/svg" width="14.003" height="16" viewBox="0 0 14.003 16">
  <g id="Add_Effect" data-name="Add Effect" transform="translate(-221.101 -161.501)">
    <path id="Path_448" data-name="Path 448" d="M232.273,169.1v0l2.062-2.061a.5.5,0,0,0,0-.707l-2.063-2.064a.5.5,0,0,0-.708,0l-10.318,10.318a.5.5,0,0,0,0,.707l2.064,2.064a.5.5,0,0,0,.707,0l8.252-8.252Zm-.354-3.774,1.356,1.356-1.356,1.357-1.356-1.357Zm-8.255,10.967-1.356-1.356,7.548-7.548,1.355,1.357Z" fill="#a0abc1"/>
    <path id="Path_449" data-name="Path 449" d="M225.12,164.5a1.5,1.5,0,0,1,1.5,1.5.5.5,0,0,0,1,0,1.5,1.5,0,0,1,1.5-1.5.5.5,0,1,0,0-1,1.5,1.5,0,0,1-1.5-1.5.5.5,0,1,0-1,0,1.5,1.5,0,0,1-1.5,1.5.5.5,0,0,0,0,1Zm2-1a2.519,2.519,0,0,0,.5.5,2.574,2.574,0,0,0-.5.5,2.52,2.52,0,0,0-.5-.5A2.468,2.468,0,0,0,227.117,163.5Z" fill="#a0abc1"/>
    <path id="Path_450" data-name="Path 450" d="M234.6,172.374a1.5,1.5,0,0,1-1.5-1.5.5.5,0,0,0-1,0,1.5,1.5,0,0,1-1.5,1.5.5.5,0,0,0,0,1,1.5,1.5,0,0,1,1.5,1.5.5.5,0,0,0,1,0,1.5,1.5,0,0,1,1.5-1.5.5.5,0,0,0,0-1Zm-2,1a2.52,2.52,0,0,0-.5-.5,2.468,2.468,0,0,0,.5-.5,2.52,2.52,0,0,0,.5.5A2.574,2.574,0,0,0,232.606,173.374Z" fill="#a0abc1"/>
  </g>
</svg>
