<svg xmlns="http://www.w3.org/2000/svg" xmlns:xlink="http://www.w3.org/1999/xlink" width="30" height="95" viewBox="0 0 30 95">
  <defs>
    <filter id="Path_512" x="0" y="0" width="30" height="95" filterUnits="userSpaceOnUse">
      <feOffset dy="1" input="SourceAlpha"/>
      <feGaussianBlur stdDeviation="2.5" result="blur"/>
      <feFlood flood-color="#dce3f4"/>
      <feComposite operator="in" in2="blur"/>
      <feComposite in="SourceGraphic"/>
    </filter>
  </defs>
  <g id="Group_988" data-name="Group 988" transform="translate(-452.5 -524.5)">
    <g transform="matrix(1, 0, 0, 1, 452.5, 524.5)" filter="url(#Path_512)">
      <path id="Path_512-2" data-name="Path 512" d="M0,0,15,15V65L0,80Z" transform="translate(7.5 6.5)" fill="#fff"/>
    </g>
    <g id="Union_1" data-name="Union 1" transform="translate(465.793 1997.793)" fill="#a0abc1">
      <path d="M 3.535310506820679 -1423.00341796875 C 3.374980688095093 -1423.00341796875 3.224530458450317 -1423.065673828125 3.111660480499268 -1423.178588867188 L 0.282990574836731 -1426.007202148438 C 0.1668710857629776 -1426.123413085938 0.1030262410640717 -1426.283935546875 0.107473686337471 -1426.448120117188 C 0.103016696870327 -1426.612060546875 0.1668810844421387 -1426.772338867188 0.2830005586147308 -1426.888427734375 L 3.111690521240234 -1429.717163085938 C 3.225050687789917 -1429.830444335938 3.375610589981079 -1429.892822265625 3.535650491714478 -1429.892822265625 C 3.695690631866455 -1429.892822265625 3.846250534057617 -1429.830444335938 3.959590673446655 -1429.717163085938 C 4.07295036315918 -1429.603881835938 4.135380744934082 -1429.453125 4.135380744934082 -1429.292724609375 C 4.135380744934082 -1429.13232421875 4.07295036315918 -1428.981689453125 3.959590673446655 -1428.868408203125 L 1.539508938789368 -1426.4482421875 L 3.959620475769043 -1424.02734375 C 4.193610668182373 -1423.793334960938 4.193620681762695 -1423.41259765625 3.959610462188721 -1423.178588867188 C 3.846190690994263 -1423.065551757813 3.695550680160522 -1423.00341796875 3.535310506820679 -1423.00341796875 Z" stroke="none"/>
      <path d="M 3.535310506820679 -1423.103393554688 C 3.663220643997192 -1423.103393554688 3.791250467300415 -1423.151977539063 3.888900518417358 -1423.249267578125 C 4.084200382232666 -1423.444580078125 4.084200382232666 -1423.761352539063 3.888900518417358 -1423.956665039063 L 1.398100614547729 -1426.4482421875 L 3.888900518417358 -1428.939086914063 C 4.084200382232666 -1429.13427734375 4.084200382232666 -1429.451171875 3.888900518417358 -1429.646484375 C 3.791250467300415 -1429.744018554688 3.663450479507446 -1429.792846679688 3.535650491714478 -1429.792846679688 C 3.407850503921509 -1429.792846679688 3.28005051612854 -1429.744018554688 3.182400465011597 -1429.646484375 L 0.353700578212738 -1426.817749023438 C 0.2518705725669861 -1426.715942382813 0.2031605690717697 -1426.581298828125 0.2075205743312836 -1426.448120117188 C 0.2031605690717697 -1426.314575195313 0.2518705725669861 -1426.179809570313 0.353700578212738 -1426.077880859375 L 3.182400465011597 -1423.249267578125 C 3.279600620269775 -1423.151977539063 3.407400608062744 -1423.103393554688 3.535310506820679 -1423.103393554688 M 3.535310506820679 -1422.903442382813 C 3.3482506275177 -1422.903442382813 3.172670602798462 -1422.97607421875 3.040910482406616 -1423.10791015625 L 0.2122805714607239 -1425.9365234375 C 0.07744050770998001 -1426.071411132813 0.003022520570084453 -1426.257568359375 0.007448120508342981 -1426.448120117188 C 0.003013517940416932 -1426.638427734375 0.07746050506830215 -1426.824340820313 0.212300568819046 -1426.959228515625 L 3.040980577468872 -1429.787963867188 C 3.173250675201416 -1429.920043945313 3.348910570144653 -1429.992919921875 3.535650491714478 -1429.992919921875 C 3.722390651702881 -1429.992919921875 3.898050546646118 -1429.920043945313 4.030280590057373 -1429.787963867188 C 4.162550449371338 -1429.655639648438 4.235370635986328 -1429.479858398438 4.23538064956665 -1429.292724609375 C 4.23538064956665 -1429.105590820313 4.162540435791016 -1428.929809570313 4.030280590057373 -1428.797607421875 L 1.680917263031006 -1426.4482421875 L 4.030340671539307 -1424.098022460938 C 4.303310394287109 -1423.825073242188 4.303310394287109 -1423.380859375 4.030330657958984 -1423.10791015625 C 3.897900581359863 -1422.975952148438 3.722190618515015 -1422.903442382813 3.535310506820679 -1422.903442382813 Z" stroke="none" fill="#a0abc1"/>
    </g>
  </g>
</svg>