<svg xmlns="http://www.w3.org/2000/svg" width="15.5" height="17" viewBox="0 0 15.5 17">
  <g id="delete" transform="translate(-309.105 -121.624)">
    <path id="Path_339" data-name="Path 339" d="M324.605,125.068h-4.463v-1.833a1.6,1.6,0,0,0-1.6-1.611h-3.384a1.6,1.6,0,0,0-1.6,1.611v1.833h-4.462v1.5h1.137l.787,9.584a2.46,2.46,0,0,0,2.442,2.472h6.768a2.442,2.442,0,0,0,2.438-2.41l.79-9.646h1.138Zm-9.538-1.833a.106.106,0,0,1,.1-.111h3.384a.1.1,0,0,1,.1.111v1.833h-3.575Zm6.113,12.917a.958.958,0,0,1-.941.972h-6.768a.979.979,0,0,1-.945-1.033l-.78-9.523h10.216Z" fill="#a0abc1"/>
    <rect id="Rectangle_14584" data-name="Rectangle 14584" width="1.5" height="5.167" rx="0.75" transform="translate(314.413 129.263)" fill="#a0abc1"/>
    <rect id="Rectangle_14585" data-name="Rectangle 14585" width="1.5" height="5.167" rx="0.75" transform="translate(317.796 129.263)" fill="#a0abc1"/>
  </g>
</svg>
