<svg xmlns="http://www.w3.org/2000/svg" width="18.922" height="20" viewBox="0 0 18.922 20">
  <g id="download" transform="translate(-248.968 -21)">
    <path id="Path_352" data-name="Path 352" d="M267.057,33.618a.834.834,0,0,0-.833.833v2.157a1.325,1.325,0,0,1-1.324,1.323H251.958a1.324,1.324,0,0,1-1.323-1.323V34.451a.833.833,0,0,0-1.667,0v2.157a2.993,2.993,0,0,0,2.99,2.99H264.9a2.994,2.994,0,0,0,2.991-2.99V34.451A.834.834,0,0,0,267.057,33.618Z" transform="translate(0 1.402)" fill="#fff"/>
    <path id="Path_353" data-name="Path 353" d="M257.515,35.364a.849.849,0,0,0,.269.179.829.829,0,0,0,.641,0,.849.849,0,0,0,.269-.179l5.392-5.393a.833.833,0,0,0-1.179-1.178l-3.97,3.97V21.833a.833.833,0,1,0-1.667,0v10.93l-3.969-3.97a.833.833,0,1,0-1.178,1.178Z" transform="translate(0.324 0)" fill="#fff"/>
  </g>
</svg>