<svg xmlns="http://www.w3.org/2000/svg" width="15.435" height="9.482" viewBox="0 0 15.435 9.482">
  <g id="eye" transform="translate(-1803.065 -229.261)">
    <path id="Path_299" data-name="Path 299" d="M1817.729,232.139a9.823,9.823,0,0,0-13.894,0,2.638,2.638,0,0,0,0,3.726,9.824,9.824,0,0,0,13.894,0A2.636,2.636,0,0,0,1817.729,232.139Zm-1.06,2.666a8.325,8.325,0,0,1-11.773,0,1.136,1.136,0,0,1,0-1.606,8.325,8.325,0,0,1,11.773,0A1.138,1.138,0,0,1,1816.669,234.8Z" fill="#a0abc1"/>
    <path id="Path_300" data-name="Path 300" d="M1810.782,231.752a2.25,2.25,0,1,0,2.25,2.25A2.253,2.253,0,0,0,1810.782,231.752Zm0,3a.75.75,0,1,1,.75-.75A.752.752,0,0,1,1810.782,234.752Z" fill="#a0abc1"/>
  </g>
</svg>
