<svg xmlns="http://www.w3.org/2000/svg" width="17.5" height="17.5" viewBox="0 0 17.5 17.5">
  <g id="Group_1110" data-name="Group 1110" transform="translate(84.045 -367.944)">
    <g id="Group_1107" data-name="Group 1107">
      <path id="Path_587" data-name="Path 587" d="M-67.295,377.444h-16a.75.75,0,0,1-.75-.75.75.75,0,0,1,.75-.75h16a.75.75,0,0,1,.75.75A.75.75,0,0,1-67.295,377.444Z" fill="#a0a0a0"/>
    </g>
    <g id="Group_1108" data-name="Group 1108">
      <path id="Path_588" data-name="Path 588" d="M-79.739,385.444a.749.749,0,0,1-.4-.112.752.752,0,0,1-.355-.638V380.25a.75.75,0,0,1,.75-.75h8.889a.75.75,0,0,1,.73.578.75.75,0,0,1-.395.843l-8.889,4.444A.749.749,0,0,1-79.739,385.444Zm.75-4.444v2.48l4.962-2.48Z" fill="#a0a0a0"/>
    </g>
    <g id="Group_1109" data-name="Group 1109">
      <path id="Path_589" data-name="Path 589" d="M-70.85,373.889h-8.889a.75.75,0,0,1-.75-.75v-4.445a.751.751,0,0,1,.355-.637.748.748,0,0,1,.73-.034l8.889,4.445a.75.75,0,0,1,.395.843A.751.751,0,0,1-70.85,373.889Zm-8.139-1.5h4.962l-4.962-2.481Z" fill="#a0a0a0"/>
    </g>
  </g>
</svg>