<svg xmlns="http://www.w3.org/2000/svg" width="27.345" height="22.499" viewBox="0 0 27.345 22.499">
  <g id="line_height" data-name="line height" transform="translate(-302.655 -337.882)">
    <path id="Path_457" data-name="Path 457" d="M309.506,342.477a.75.75,0,0,0,1.06-1.061l-3.315-3.315a.753.753,0,0,0-.817-.162.771.771,0,0,0-.244.162l-3.315,3.315a.75.75,0,0,0,1.061,1.061l2.035-2.035V357.82l-2.035-2.036a.75.75,0,1,0-1.061,1.061l3.315,3.316a.751.751,0,0,0,.242.162.748.748,0,0,0,.819-.162l3.315-3.316a.75.75,0,1,0-1.06-1.061l-2.035,2.036V340.442Z" fill="#a0abc1"/>
    <path id="Path_458" data-name="Path 458" d="M315.25,344.631h14a.75.75,0,0,0,0-1.5h-14a.75.75,0,0,0,0,1.5Z" fill="#a0abc1"/>
    <path id="Path_459" data-name="Path 459" d="M329.25,348.381h-14a.75.75,0,0,0,0,1.5h14a.75.75,0,0,0,0-1.5Z" fill="#a0abc1"/>
    <path id="Path_460" data-name="Path 460" d="M325.75,353.631h-10.5a.75.75,0,0,0,0,1.5h10.5a.75.75,0,0,0,0-1.5Z" fill="#a0abc1"/>
  </g>
</svg>
