<svg xmlns="http://www.w3.org/2000/svg" width="29.499" height="21.538" viewBox="0 0 29.499 21.538">
  <g id="line_width" data-name="line width" transform="translate(-135.501 -338.363)">
    <path id="Path_453" data-name="Path 453" d="M165,355.835a.768.768,0,0,0-.058-.289.747.747,0,0,0-.162-.241l-3.316-3.315a.75.75,0,1,0-1.061,1.06l2.036,2.035H138.061l2.035-2.035a.75.75,0,1,0-1.061-1.06L135.72,355.3a.753.753,0,0,0-.162.817.771.771,0,0,0,.162.244l3.315,3.315a.75.75,0,0,0,1.061-1.061l-2.035-2.035h24.378L160.4,358.62a.75.75,0,1,0,1.061,1.061l3.316-3.315a.751.751,0,0,0,.162-.242A.76.76,0,0,0,165,355.835Z" fill="#a0abc1"/>
    <path id="Path_454" data-name="Path 454" d="M143.25,339.863h14a.75.75,0,0,0,0-1.5h-14a.75.75,0,0,0,0,1.5Z" fill="#a0abc1"/>
    <path id="Path_455" data-name="Path 455" d="M143.25,345.113h14a.75.75,0,0,0,0-1.5h-14a.75.75,0,0,0,0,1.5Z" fill="#a0abc1"/>
    <path id="Path_456" data-name="Path 456" d="M143.25,350.363h10.5a.75.75,0,0,0,0-1.5h-10.5a.75.75,0,0,0,0,1.5Z" fill="#a0abc1"/>
  </g>
</svg>
