<svg xmlns="http://www.w3.org/2000/svg" width="40" height="22.75" viewBox="0 0 40 22.75">
  <g id="logo" transform="translate(-20 -28.625)">
    <path id="Path_1" data-name="Path 1" d="M33.851,50.019h-9.8v-20.7a.629.629,0,0,0-.678-.691.652.652,0,0,0-.474.214.678.678,0,0,0-.2.477v20.7H21.356V29.427a.637.637,0,0,0-.2-.468.685.685,0,0,0-.947,0,.644.644,0,0,0-.2.47V50.711a.609.609,0,0,0,.661.664h13.19a.678.678,0,1,0,0-1.356Z" fill="#a0abc1"/>
    <path id="Path_2" data-name="Path 2" d="M49.063,47.912q-.793-1.126-1.808-2.56t-2.1-2.95Q44.067,40.885,43,39.41t-1.947-2.7q-.877-1.226-1.5-2.076c-.415-.562-.688-.935-.8-1.1a.634.634,0,0,0-1.068-.042.919.919,0,0,0-.146.5V50.572a.639.639,0,0,0,.214.474.687.687,0,0,0,.918.023.621.621,0,0,0,.225-.5V36.042L49.616,51.1a.615.615,0,0,0,.539.276.692.692,0,0,0,.471-.189.63.63,0,0,0,.221-.475c0-.087,0-.155-.513-.942Q49.858,49.043,49.063,47.912Z" fill="#a0abc1"/>
    <path id="Path_3" data-name="Path 3" d="M59.743,28.782a.669.669,0,0,0-.97.114L48.791,42.914,38.8,29.03a.665.665,0,0,0-1.047-.111.679.679,0,0,0-.167.453.686.686,0,0,0,.13.422l15.3,21.3a.669.669,0,0,0,1.01.087.657.657,0,0,0,.221-.5c0-.1-.028-.227-.363-.724q-.319-.471-.794-1.155c-.319-.461-.677-.951-1.063-1.456s-.754-1-1.1-1.47-.644-.887-.9-1.24c-.205-.277-.329-.453-.4-.567L58.671,31.4V50.711a.676.676,0,0,0,.174.456.606.606,0,0,0,.463.208.675.675,0,0,0,.664-.664V29.483A.677.677,0,0,0,60,29.261.574.574,0,0,0,59.743,28.782Z" fill="#a0abc1"/>
  </g>
</svg>
