<svg xmlns="http://www.w3.org/2000/svg" width="16.531" height="20" viewBox="0 0 16.531 20">
  <g id="Group_114" data-name="Group 114" transform="translate(0 0)">
    <path id="Path_90" data-name="Path 90" d="M1831.485,234.826l-5.251-5.065a.928.928,0,0,0-.646-.259h-7.351a2.966,2.966,0,0,0-3.014,2.909v14.182a2.965,2.965,0,0,0,3.014,2.908h10.5a2.967,2.967,0,0,0,3.016-2.908V235.45A.865.865,0,0,0,1831.485,234.826Zm-1.561,11.768a1.167,1.167,0,0,1-1.186,1.144h-10.5a1.166,1.166,0,0,1-1.185-1.144V232.411a1.167,1.167,0,0,1,1.185-1.145h6.973l4.715,4.548Z" transform="translate(-1815.222 -229.502)" fill="#a0a0a0"/>
    <path id="Path_91" data-name="Path 91" d="M1823.492,238.011a.915.915,0,0,0-1.829,0v1.377h-1.377a.915.915,0,0,0,0,1.829h1.377v1.376a.915.915,0,0,0,1.829,0v-1.376h1.376a.915.915,0,0,0,0-1.829h-1.376Z" transform="translate(-1814.311 -228.308)" fill="#a0a0a0"/>
  </g>
</svg>