<svg xmlns="http://www.w3.org/2000/svg" width="20" height="20" viewBox="0 0 20 20">
  <g id="Group_116" data-name="Group 116" transform="translate(0 0)">
    <path id="Path_92" data-name="Path 92" d="M1784.338,234.061h-1.4v-1.4a3.166,3.166,0,0,0-3.162-3.161h-9.118a3.166,3.166,0,0,0-3.161,3.161v9.118a3.166,3.166,0,0,0,3.161,3.162h1.4v1.4a3.166,3.166,0,0,0,3.161,3.162h9.118a3.166,3.166,0,0,0,3.162-3.162v-9.118A3.166,3.166,0,0,0,1784.338,234.061Zm-12.279,3.161v5.956h-1.4a1.4,1.4,0,0,1-1.4-1.4v-9.118a1.4,1.4,0,0,1,1.4-1.4h9.118a1.4,1.4,0,0,1,1.4,1.4v1.4h-5.957A3.166,3.166,0,0,0,1772.059,237.222Zm13.677,9.118a1.4,1.4,0,0,1-1.4,1.4h-9.118a1.4,1.4,0,0,1-1.4-1.4v-9.118a1.4,1.4,0,0,1,1.4-1.4h9.118a1.4,1.4,0,0,1,1.4,1.4Z" transform="translate(-1767.5 -229.502)" fill="#a0a0a0"/>
    <path id="Path_93" data-name="Path 93" d="M1780.805,239.6h-1.377v-1.376a.915.915,0,0,0-1.829,0V239.6h-1.376a.915.915,0,0,0,0,1.829h1.376v1.376a.915.915,0,0,0,1.829,0v-1.376h1.377a.915.915,0,1,0,0-1.829Z" transform="translate(-1766.273 -228.274)" fill="#a0a0a0"/>
  </g>
</svg>