<svg xmlns="http://www.w3.org/2000/svg" width="17.5" height="17.5" viewBox="0 0 17.5 17.5">
  <g id="Group_1117" data-name="Group 1117" transform="translate(84.045 -411.145)">
    <g id="Group_1114" data-name="Group 1114">
      <path id="Path_590" data-name="Path 590" d="M-75.295,428.645a.75.75,0,0,1-.75-.75v-16a.75.75,0,0,1,.75-.75.75.75,0,0,1,.75.75v16A.75.75,0,0,1-75.295,428.645Z" fill="#a0a0a0"/>
    </g>
    <g id="Group_1115" data-name="Group 1115">
      <path id="Path_591" data-name="Path 591" d="M-67.295,425.089h-4.444a.75.75,0,0,1-.75-.75V415.45a.749.749,0,0,1,.577-.729.748.748,0,0,1,.844.394L-66.624,424a.751.751,0,0,1-.033.729A.75.75,0,0,1-67.295,425.089Zm-3.694-1.5h2.481l-2.481-4.962Z" fill="#a0a0a0"/>
    </g>
    <g id="Group_1116" data-name="Group 1116">
      <path id="Path_592" data-name="Path 592" d="M-78.85,425.089h-4.445a.751.751,0,0,1-.638-.356.751.751,0,0,1-.033-.729l4.445-8.889a.743.743,0,0,1,.843-.394.749.749,0,0,1,.578.729v8.889A.75.75,0,0,1-78.85,425.089Zm-3.232-1.5H-79.6v-4.962Z" fill="#a0a0a0"/>
    </g>
  </g>
</svg>